<?xml version="1.0" encoding="utf-8"?>
<!-- Generator: Adobe Illustrator 19.0.0, SVG Export Plug-In . SVG Version: 6.00 Build 0)  -->
<svg version="1.1" id="Layer_1" xmlns="http://www.w3.org/2000/svg" xmlns:xlink="http://www.w3.org/1999/xlink" x="0px" y="0px"
	 viewBox="0 0 3000 2000" style="enable-background:new 0 0 3000 2000;" xml:space="preserve">
<style type="text/css">
	.st0{fill:url(#XMLID_5_);}
	.st1{enable-background:new    ;}
	.st2{fill:#474848;}
	.st3{fill:url(#XMLID_6_);}
	.st4{clip-path:url(#XMLID_10_);enable-background:new    ;}
	.st5{clip-path:url(#XMLID_26_);enable-background:new    ;}
	.st6{fill:url(#XMLID_50_);}
	.st7{clip-path:url(#XMLID_52_);enable-background:new    ;}
	.st8{fill:#484949;}
	.st9{fill:url(#XMLID_81_);}
	.st10{clip-path:url(#XMLID_82_);enable-background:new    ;}
	.st11{clip-path:url(#XMLID_84_);enable-background:new    ;}
	.st12{clip-path:url(#XMLID_86_);enable-background:new    ;}
	.st13{clip-path:url(#XMLID_87_);enable-background:new    ;}
	.st14{clip-path:url(#XMLID_88_);enable-background:new    ;}
	.st15{clip-path:url(#XMLID_89_);enable-background:new    ;}
	.st16{fill:url(#XMLID_90_);}
	.st17{clip-path:url(#XMLID_91_);}
	.st18{fill:url(#XMLID_92_);}
	.st19{fill:url(#XMLID_93_);}
	.st20{fill:url(#XMLID_94_);}
	.st21{fill:#939598;}
</style>
<g id="XMLID_1_">
	
		<radialGradient id="XMLID_5_" cx="970.0146" cy="1205.6359" r="459.3671" gradientTransform="matrix(1.185 0 0 0.2573 -271.1258 948.2899)" gradientUnits="userSpaceOnUse">
		<stop  offset="0" style="stop-color:#000000"/>
		<stop  offset="1" style="stop-color:#FFFFFF;stop-opacity:0"/>
	</radialGradient>
	<ellipse id="XMLID_143_" class="st0" cx="878.3" cy="1258.5" rx="541.1" ry="122"/>
	<g id="XMLID_2_">
		<g id="XMLID_3_">
			<g id="XMLID_7_" class="st1">
				<g id="XMLID_79_">
					<polygon id="XMLID_80_" class="st2" points="1129.3,743.1 1096.9,815.8 1134.6,700.4 1168.8,620.5 					"/>
				</g>
				<g id="XMLID_77_">
					<polygon id="XMLID_78_" class="st2" points="1168.8,620.5 1134.6,700.4 873.4,744.9 880.7,661.3 					"/>
				</g>
				<g id="XMLID_75_">
					<polygon id="XMLID_76_" points="1129.3,743.1 1096.9,815.8 898.7,857.6 909.4,784 					"/>
				</g>
				<g id="XMLID_73_">
					
						<linearGradient id="XMLID_6_" gradientUnits="userSpaceOnUse" x1="1199.2419" y1="657.3394" x2="541.4353" y2="857.8241" gradientTransform="matrix(0.9907 -0.1362 0.1362 0.9907 -63.3313 215.593)">
						<stop  offset="3.763441e-002" style="stop-color:#939598"/>
						<stop  offset="0.2097" style="stop-color:#FFFFFF"/>
						<stop  offset="0.3172" style="stop-color:#B8BABC"/>
						<stop  offset="0.4731" style="stop-color:#F1F2F2"/>
						<stop  offset="0.6935" style="stop-color:#6E7072"/>
						<stop  offset="0.8118" style="stop-color:#F1F2F2"/>
						<stop  offset="0.9624" style="stop-color:#939598"/>
					</linearGradient>
					<polygon id="XMLID_74_" class="st3" points="1130.1,743.8 1097.6,816.5 899,858.4 909.8,784.9 					"/>
				</g>
				<g id="XMLID_69_" class="st1">
					<defs>
						<path id="XMLID_72_" class="st1" d="M791.6,954.3c-0.7,2.9-1.4,5.8-1.9,8.8c-0.5,3-0.9,6-1.2,9c-0.3,3-0.5,6.1-0.6,9.2
							c-0.1,3.1,0,6.2,0.1,9.4l-3.2-62.7c-0.2-3.5-0.2-7-0.1-10.4c0.1-3.4,0.3-6.8,0.6-10.2c0.3-3.3,0.8-6.7,1.4-9.9
							c0.6-3.3,1.3-6.5,2.2-9.7c1.2-4.6,2.7-9,4.3-13.4c1.6-4.3,3.5-8.5,5.5-12.6c2-4.1,4.2-8,6.7-11.8c2.4-3.8,5-7.4,7.8-11
							c2.8-3.5,5.7-6.9,8.9-10.1c3.1-3.2,6.4-6.3,9.9-9.3c3.5-2.9,7.1-5.8,10.9-8.4c3.8-2.7,7.8-5.2,11.9-7.5
							c4-2.3,8.2-4.5,12.5-6.5c4.3-2,8.7-3.8,13.2-5.4c4.5-1.6,9.2-3.1,14.1-4.4c4.8-1.3,9.8-2.4,14.9-3.4l-10.7,73.6
							c-4.6,1-9,2.1-13.3,3.4c-4.3,1.3-8.5,2.7-12.5,4.3c-4.1,1.6-8,3.3-11.8,5.2c-3.8,1.9-7.5,3.9-11.1,6.1
							c-3.7,2.2-7.2,4.6-10.6,7.1c-3.4,2.5-6.6,5.1-9.7,7.9c-3.1,2.8-6,5.6-8.8,8.6c-2.8,3-5.4,6.1-7.9,9.4
							c-2.5,3.3-4.8,6.6-6.9,10.1c-2.1,3.5-4.1,7.1-5.9,10.8c-1.8,3.7-3.4,7.6-4.9,11.5C793.9,946,792.7,950.1,791.6,954.3z"/>
					</defs>
					<clipPath id="XMLID_10_">
						<use xlink:href="#XMLID_72_"  style="overflow:visible;"/>
					</clipPath>
					<g id="XMLID_70_" class="st4">
						<path id="XMLID_71_" d="M909.4,784l-10.7,73.6c-4.6,1-9,2.1-13.3,3.4c-4.3,1.3-8.5,2.7-12.5,4.3c-4.1,1.6-8,3.3-11.8,5.2
							c-3.8,1.9-7.5,3.9-11.1,6.1c-3.7,2.2-7.2,4.6-10.6,7.1c-3.4,2.5-6.6,5.1-9.7,7.9c-3.1,2.8-6,5.6-8.8,8.6
							c-2.8,3-5.4,6.1-7.9,9.4c-2.5,3.3-4.8,6.6-6.9,10.1c-2.1,3.5-4.1,7.1-5.9,10.8c-1.8,3.7-3.4,7.6-4.9,11.5
							c-1.4,4-2.7,8-3.8,12.2c-0.8,2.9-1.4,5.8-1.9,8.8c-0.5,3-0.9,6-1.2,9c-0.3,3-0.5,6.1-0.6,9.2c-0.1,3.1,0,6.2,0.1,9.4
							l-3.2-62.7c-0.2-3.5-0.2-7-0.1-10.4c0.1-3.4,0.3-6.8,0.6-10.2c0.3-3.4,0.8-6.7,1.4-9.9c0.6-3.3,1.3-6.5,2.2-9.7
							c1.2-4.6,2.7-9,4.3-13.4c1.6-4.3,3.5-8.5,5.5-12.6c2-4.1,4.2-8,6.7-11.8c2.4-3.8,5-7.4,7.8-11c2.8-3.5,5.7-6.9,8.9-10.1
							c3.1-3.2,6.4-6.3,9.9-9.3c3.5-2.9,7.1-5.8,10.9-8.4c3.8-2.7,7.8-5.2,11.9-7.5c4-2.3,8.2-4.5,12.5-6.5c4.3-2,8.7-3.8,13.2-5.4
							c4.5-1.6,9.2-3.1,14.1-4.4C899.3,786.1,904.3,785,909.4,784"/>
					</g>
				</g>
				<g id="XMLID_65_" class="st1">
					<defs>
						<path id="XMLID_68_" class="st1" d="M789,990.4c-1-20.8-2.1-41.6-3.1-62.7c-0.2-3.4-0.2-6.9-0.1-10.2c0.1-3.4,0.3-6.7,0.6-10
							c0.3-3.3,0.8-6.6,1.4-9.8c0.6-3.2,1.3-6.4,2.1-9.5c1.2-4.5,2.6-9,4.3-13.3c1.6-4.3,3.4-8.5,5.5-12.5c2-4,4.2-7.9,6.6-11.7
							c2.4-3.8,5-7.4,7.7-10.9c2.8-3.5,5.7-6.8,8.8-10.1c3.1-3.2,6.4-6.3,9.9-9.2c3.4-2.9,7.1-5.7,10.9-8.4
							c3.8-2.6,7.7-5.2,11.8-7.5c4-2.3,8.1-4.5,12.4-6.4c4.2-2,8.6-3.8,13.2-5.4c4.5-1.6,9.2-3.1,14-4.4c4.8-1.3,9.7-2.4,14.9-3.4
							L899,858.4c-4.6,1-9,2.1-13.3,3.4c-4.3,1.3-8.5,2.7-12.5,4.3c-4,1.6-7.9,3.3-11.7,5.2c-3.8,1.9-7.5,3.9-11,6.1
							c-3.6,2.2-7.1,4.6-10.5,7.1c-3.4,2.5-6.6,5.1-9.6,7.8c-3.1,2.7-6,5.6-8.8,8.6c-2.8,3-5.4,6.1-7.8,9.3c-2.4,3.2-4.7,6.6-6.8,10
							c-2.1,3.5-4.1,7.1-5.8,10.8c-1.8,3.7-3.4,7.5-4.8,11.4c-1.4,3.9-2.7,8-3.8,12.1c-0.7,2.9-1.4,5.7-1.9,8.7
							c-0.5,2.9-0.9,5.9-1.2,8.9c-0.3,3-0.5,6-0.6,9.1C788.8,984.2,788.9,987.3,789,990.4z"/>
					</defs>
					<clipPath id="XMLID_26_">
						<use xlink:href="#XMLID_68_"  style="overflow:visible;"/>
					</clipPath>
					<g id="XMLID_66_" class="st5">
						
							<linearGradient id="XMLID_50_" gradientUnits="userSpaceOnUse" x1="1187.7047" y1="672.9013" x2="559.3398" y2="864.4128" gradientTransform="matrix(0.9907 -0.1362 0.1362 0.9907 -63.3313 215.593)">
							<stop  offset="3.763441e-002" style="stop-color:#939598"/>
							<stop  offset="0.2097" style="stop-color:#FFFFFF"/>
							<stop  offset="0.3172" style="stop-color:#B8BABC"/>
							<stop  offset="0.4731" style="stop-color:#F1F2F2"/>
							<stop  offset="0.6935" style="stop-color:#6E7072"/>
							<stop  offset="0.8118" style="stop-color:#F1F2F2"/>
							<stop  offset="0.9624" style="stop-color:#939598"/>
						</linearGradient>
						<path id="XMLID_67_" class="st6" d="M909.8,784.9L899,858.4c-4.6,1-9,2.1-13.3,3.4c-4.3,1.3-8.5,2.7-12.5,4.3
							c-4,1.6-7.9,3.3-11.7,5.2c-3.8,1.9-7.5,3.9-11,6.1c-3.6,2.2-7.1,4.6-10.5,7.1c-3.4,2.5-6.6,5.1-9.6,7.8
							c-3.1,2.7-6,5.6-8.8,8.6c-2.8,3-5.4,6.1-7.8,9.3c-2.4,3.2-4.7,6.6-6.8,10c-2.1,3.5-4.1,7.1-5.8,10.8
							c-1.8,3.7-3.4,7.5-4.8,11.4c-1.4,3.9-2.7,8-3.8,12.1c-0.7,2.9-1.4,5.7-1.9,8.7c-0.5,2.9-0.9,5.9-1.2,8.9c-0.3,3-0.5,6-0.6,9.1
							c-0.1,3.1,0,6.1,0.1,9.3l-3.1-62.7c-0.2-3.4-0.2-6.9-0.1-10.2c0.1-3.4,0.3-6.7,0.6-10c0.3-3.3,0.8-6.6,1.4-9.8
							c0.6-3.2,1.3-6.4,2.1-9.5c1.2-4.5,2.6-9,4.3-13.3c1.6-4.3,3.4-8.5,5.5-12.5c2-4,4.2-7.9,6.6-11.7c2.4-3.8,5-7.4,7.7-10.9
							c2.8-3.5,5.7-6.8,8.8-10.1c3.1-3.2,6.4-6.3,9.9-9.2c3.4-2.9,7.1-5.7,10.9-8.4c3.8-2.6,7.7-5.2,11.8-7.5
							c4-2.3,8.1-4.5,12.4-6.4c4.2-2,8.6-3.8,13.2-5.4c4.5-1.6,9.2-3.1,14-4.4C899.7,787,904.7,785.9,909.8,784.9"/>
					</g>
				</g>
				<g id="XMLID_63_">
					<polygon id="XMLID_64_" class="st2" points="1251.8,1125.1 1201.2,1163 1236.5,1011.5 1287.5,958.4 					"/>
				</g>
				<g id="XMLID_61_">
					<polygon id="XMLID_62_" class="st2" points="1287.5,958.4 1236.5,1011.5 952.8,1096.8 971.8,1048.4 					"/>
				</g>
				<g id="XMLID_57_" class="st1">
					<defs>
						<path id="XMLID_60_" class="st1" d="M788,990.7l-3.2-62.7c0.1,1.5,0.2,3.1,0.3,4.6c0.1,1.6,0.3,3.1,0.5,4.7
							c0.2,1.6,0.4,3.1,0.6,4.7c0.2,1.6,0.5,3.2,0.8,4.7c0.9,5.2,2.1,10.3,3.5,15.2c1.4,4.9,3.1,9.7,4.9,14.4
							c1.9,4.6,4,9.1,6.4,13.4c2.4,4.3,4.9,8.4,7.7,12.3c2.8,3.9,5.8,7.7,9,11.2c3.2,3.5,6.6,6.9,10.1,10c3.6,3.1,7.3,6,11.2,8.7
							c3.9,2.7,8,5.1,12.2,7.4c4.2,2.2,8.6,4.2,13.1,6c4.5,1.8,9.1,3.3,13.9,4.7c4.7,1.3,9.6,2.4,14.5,3.3c4.9,0.9,10,1.5,15.1,1.9
							c5.1,0.4,10.3,0.6,15.5,0.5c5.2-0.1,10.5-0.4,15.8-1c5.3-0.6,10.6-1.4,15.9-2.4c5.3-1.1,10.6-2.3,16-3.9l-19.1,48.4
							c-4.7,1.4-9.4,2.6-14.1,3.6c-4.7,1-9.4,1.8-14.1,2.4c-4.7,0.6-9.3,0.9-13.9,1.1c-4.6,0.1-9.2,0-13.7-0.3
							c-4.5-0.3-9-0.8-13.3-1.6c-4.4-0.7-8.6-1.7-12.8-2.8c-4.2-1.1-8.2-2.5-12.2-4c-4-1.5-7.8-3.3-11.5-5.3
							c-3.7-2-7.3-4.1-10.7-6.5c-3.4-2.4-6.7-4.9-9.8-7.7c-3.1-2.7-6.1-5.7-8.9-8.8c-2.8-3.1-5.4-6.4-7.9-9.9
							c-2.5-3.5-4.7-7.1-6.8-11c-2.1-3.8-3.9-7.8-5.6-11.9c-1.7-4.1-3.1-8.4-4.4-12.8c-1.2-4.4-2.3-9-3.1-13.7
							c-0.3-1.4-0.5-2.9-0.7-4.3c-0.2-1.4-0.4-2.8-0.6-4.2c-0.2-1.4-0.3-2.8-0.4-4.2C788.2,993.5,788.1,992.1,788,990.7z"/>
					</defs>
					<clipPath id="XMLID_52_">
						<use xlink:href="#XMLID_60_"  style="overflow:visible;"/>
					</clipPath>
					<g id="XMLID_58_" class="st7">
						<path id="XMLID_59_" class="st8" d="M971.8,1048.4l-19.1,48.4c-4.7,1.4-9.4,2.6-14.1,3.6c-4.7,1-9.4,1.8-14.1,2.4
							c-4.7,0.6-9.3,0.9-13.9,1.1c-4.6,0.1-9.2,0-13.7-0.3c-4.5-0.3-9-0.8-13.3-1.6c-4.4-0.7-8.6-1.7-12.8-2.8
							c-4.2-1.1-8.2-2.5-12.2-4c-4-1.5-7.8-3.3-11.5-5.3c-3.7-2-7.3-4.1-10.7-6.5c-3.4-2.4-6.7-4.9-9.8-7.7
							c-3.1-2.7-6.1-5.7-8.9-8.8c-2.8-3.1-5.4-6.4-7.9-9.9c-2.5-3.5-4.7-7.1-6.8-11c-2.1-3.8-3.9-7.8-5.6-11.9
							c-1.7-4.1-3.1-8.4-4.4-12.8c-1.2-4.4-2.3-9-3.1-13.7c-0.3-1.4-0.5-2.9-0.7-4.3c-0.2-1.4-0.4-2.8-0.6-4.2
							c-0.2-1.4-0.3-2.8-0.4-4.2c-0.1-1.4-0.2-2.8-0.3-4.2l-3.2-62.7c0.1,1.5,0.2,3.1,0.3,4.6c0.1,1.6,0.3,3.1,0.5,4.7
							c0.2,1.6,0.4,3.1,0.6,4.7c0.2,1.6,0.5,3.2,0.8,4.7c0.9,5.2,2.1,10.3,3.5,15.2c1.4,4.9,3.1,9.7,4.9,14.4
							c1.9,4.6,4,9.1,6.4,13.4c2.4,4.3,4.9,8.4,7.7,12.3c2.8,3.9,5.8,7.7,9,11.2c3.2,3.5,6.6,6.9,10.1,10c3.6,3.1,7.3,6,11.2,8.7
							c3.9,2.7,8,5.1,12.2,7.4c4.2,2.2,8.6,4.2,13.1,6c4.5,1.8,9.1,3.3,13.9,4.7c4.7,1.3,9.6,2.4,14.5,3.3c4.9,0.9,10,1.5,15.1,1.9
							c5.1,0.4,10.3,0.6,15.5,0.5c5.2-0.1,10.5-0.4,15.8-1c5.3-0.6,10.6-1.4,15.9-2.4C961.2,1051.3,966.5,1050,971.8,1048.4"/>
					</g>
				</g>
				<g id="XMLID_55_">
					<polygon id="XMLID_56_" points="1251.8,1125.1 1201.2,1163 984.9,1240 1009.6,1209.4 					"/>
				</g>
				<g id="XMLID_53_">
					
						<linearGradient id="XMLID_81_" gradientUnits="userSpaceOnUse" x1="1032.7494" y1="1118.624" x2="419.4421" y2="999.9843" gradientTransform="matrix(0.9907 -0.1362 0.1362 0.9907 -63.3313 215.593)">
						<stop  offset="3.763441e-002" style="stop-color:#939598"/>
						<stop  offset="0.2097" style="stop-color:#FFFFFF"/>
						<stop  offset="0.3172" style="stop-color:#B8BABC"/>
						<stop  offset="0.4731" style="stop-color:#F1F2F2"/>
						<stop  offset="0.6935" style="stop-color:#6E7072"/>
						<stop  offset="0.8118" style="stop-color:#F1F2F2"/>
						<stop  offset="0.9624" style="stop-color:#939598"/>
					</linearGradient>
					<polygon id="XMLID_54_" class="st9" points="1252.7,1126 1202,1163.8 985.3,1241 1010,1210.6 					"/>
				</g>
				<g id="XMLID_47_" class="st1">
					<defs>
						<path id="XMLID_51_" class="st1" d="M655.7,1118.8l-23.1-49.6c-3.2-6.9-6.1-13.9-8.8-21.1c-2.6-7.2-5-14.5-7-22
							c-2.1-7.4-3.8-15-5.3-22.7c-1.5-7.6-2.7-15.4-3.6-23.3c-1.3-11.2-2-22.2-2.1-33.1c-0.1-10.8,0.4-21.4,1.5-31.8
							c1.1-10.3,2.8-20.4,5-30.3c2.2-9.8,5-19.4,8.3-28.8c3.3-9.3,7-18.3,11.2-27c4.1-8.7,8.6-17,13.6-25.1
							c4.9-8,10.2-15.8,15.8-23.2c5.6-7.4,11.6-14.5,17.9-21.3c6.3-6.7,12.9-13.2,19.9-19.3c6.9-6.1,14.2-11.8,21.8-17.3
							c7.5-5.4,15.3-10.5,23.5-15.3c8.1-4.8,16.4-9.2,25.1-13.4c8.4-4,17-7.8,25.8-11.1c8.7-3.4,17.7-6.4,26.8-9.1
							c9.1-2.7,18.3-5.1,27.7-7.1c9.4-2,18.9-3.8,28.5-5.2c0.2,0,0.4-0.1,0.6-0.1c0.2,0,0.4-0.1,0.6-0.1c0.2,0,0.4-0.1,0.6-0.1
							c0.2,0,0.4-0.1,0.6-0.1l-7.3,83.6c-0.2,0-0.4,0.1-0.6,0.1s-0.4,0.1-0.5,0.1c-0.2,0-0.4,0.1-0.5,0.1s-0.4,0.1-0.5,0.1
							c-8.7,1.5-17.2,3.3-25.6,5.4c-8.4,2.1-16.7,4.5-24.8,7.2c-8.1,2.7-16.1,5.7-23.9,9c-7.8,3.3-15.5,6.9-23,10.8
							c-7.7,4-15.1,8.3-22.2,12.8c-7.2,4.6-14.1,9.4-20.8,14.6c-6.7,5.2-13.1,10.6-19.2,16.3c-6.1,5.7-12,11.7-17.5,18
							c-5.5,6.3-10.8,12.9-15.7,19.7c-4.9,6.9-9.5,14-13.7,21.4c-4.3,7.4-8.2,15.1-11.7,23c-3.6,8-6.8,16.2-9.6,24.7
							c-2.8,8.5-5.2,17.2-7,26.1c-1.9,9-3.2,18.1-4.1,27.4c-0.9,9.4-1.2,18.9-1.1,28.5c0.2,9.7,0.9,19.6,2.1,29.6
							c0.9,7,2,13.9,3.3,20.7c1.4,6.8,3,13.5,4.8,20.1c1.8,6.6,3.9,13.1,6.3,19.4C650.3,1106.5,652.9,1112.7,655.7,1118.8z"/>
					</defs>
					<clipPath id="XMLID_82_">
						<use xlink:href="#XMLID_51_"  style="overflow:visible;"/>
					</clipPath>
					<g id="XMLID_48_" class="st10">
						<path id="XMLID_49_" class="st8" d="M880.7,661.3l-7.3,83.6c-0.2,0-0.4,0.1-0.6,0.1s-0.4,0.1-0.5,0.1c-0.2,0-0.4,0.1-0.5,0.1
							s-0.4,0.1-0.5,0.1c-8.7,1.5-17.2,3.3-25.6,5.4c-8.4,2.1-16.7,4.5-24.8,7.2c-8.1,2.7-16.1,5.7-23.9,9
							c-7.8,3.3-15.5,6.9-23,10.8c-7.7,4-15.1,8.3-22.2,12.8c-7.2,4.6-14.1,9.4-20.8,14.6c-6.7,5.2-13.1,10.6-19.2,16.3
							c-6.1,5.7-12,11.7-17.5,18c-5.5,6.3-10.8,12.9-15.7,19.7c-4.9,6.9-9.5,14-13.7,21.4c-4.3,7.4-8.2,15.1-11.7,23
							c-3.6,8-6.8,16.2-9.6,24.7c-2.8,8.5-5.2,17.2-7,26.1c-1.9,9-3.2,18.1-4.1,27.4c-0.9,9.4-1.2,18.9-1.1,28.5
							c0.2,9.7,0.9,19.6,2.1,29.6c0.9,7,2,13.9,3.3,20.7c1.4,6.8,3,13.5,4.8,20.1c1.8,6.6,3.9,13.1,6.3,19.4
							c2.3,6.4,4.9,12.6,7.8,18.7l-23.1-49.6c-3.2-6.9-6.1-13.9-8.8-21.1c-2.6-7.2-5-14.5-7-22c-2.1-7.4-3.8-15-5.3-22.7
							c-1.5-7.6-2.7-15.4-3.6-23.3c-1.3-11.2-2-22.2-2.1-33.1c-0.1-10.8,0.4-21.4,1.5-31.8c1.1-10.3,2.8-20.4,5-30.3
							c2.2-9.8,5-19.4,8.3-28.8c3.3-9.3,7-18.3,11.2-27c4.1-8.7,8.6-17,13.6-25.1c4.9-8,10.2-15.8,15.8-23.2
							c5.6-7.4,11.6-14.5,17.9-21.3c6.3-6.7,12.9-13.2,19.9-19.3c6.9-6.1,14.2-11.8,21.8-17.3c7.5-5.4,15.3-10.5,23.5-15.3
							c8.1-4.8,16.4-9.2,25.1-13.4c8.4-4,17-7.8,25.8-11.1c8.7-3.4,17.7-6.4,26.8-9.1c9.1-2.7,18.3-5.1,27.7-7.1
							c9.4-2,18.9-3.8,28.5-5.2c0.2,0,0.4-0.1,0.6-0.1c0.2,0,0.4-0.1,0.6-0.1c0.2,0,0.4-0.1,0.6-0.1
							C880.3,661.3,880.5,661.3,880.7,661.3"/>
					</g>
				</g>
				<g id="XMLID_43_" class="st1">
					<defs>
						<path id="XMLID_46_" class="st1" d="M672.7,1149.1c-1.6-2.4-3.1-4.8-4.6-7.3c-1.5-2.5-3-4.9-4.4-7.5c-1.4-2.5-2.8-5.1-4.1-7.6
							c-1.3-2.6-2.6-5.2-3.8-7.8l-23.1-49.6c1.4,3,2.8,5.9,4.3,8.8c1.5,2.9,3,5.8,4.6,8.7c1.6,2.9,3.3,5.7,5,8.5
							c1.7,2.8,3.5,5.6,5.3,8.3c3.8,5.7,7.7,11.2,11.9,16.6c4.1,5.4,8.5,10.6,12.9,15.6c4.5,5,9.1,9.9,13.9,14.5
							c4.8,4.7,9.8,9.2,14.9,13.4c4.7,12.7,9.3,25.4,13.9,38c-4.5-3.7-8.8-7.7-13-11.7c-4.2-4.1-8.2-8.3-12.2-12.7
							c-3.9-4.4-7.7-9-11.3-13.7C679.5,1159,676,1154.1,672.7,1149.1z"/>
					</defs>
					<clipPath id="XMLID_84_">
						<use xlink:href="#XMLID_46_"  style="overflow:visible;"/>
					</clipPath>
					<g id="XMLID_44_" class="st11">
						<path id="XMLID_45_" d="M1009.6,1209.4l-24.7,30.5c-10.1,3.6-20.3,6.7-30.4,9.3c-10.2,2.6-20.4,4.6-30.5,6.1
							c-10.2,1.5-20.4,2.5-30.5,2.9c-10.1,0.4-20.2,0.3-30.2-0.5c-10-0.7-19.8-1.9-29.4-3.6c-9.6-1.7-19.1-3.9-28.2-6.6
							c-9.2-2.7-18.1-5.9-26.8-9.5c-8.7-3.7-17.1-7.8-25.2-12.4c-8.1-4.6-15.9-9.7-23.3-15.2c-7.5-5.5-14.6-11.5-21.4-17.9
							c-6.8-6.4-13.2-13.2-19.3-20.5c-6-7.2-11.7-14.8-17-22.8c-1.6-2.4-3.1-4.8-4.7-7.3c-1.5-2.5-3-5-4.4-7.5
							c-1.4-2.5-2.8-5.1-4.1-7.7c-1.3-2.6-2.6-5.2-3.8-7.8l-23.1-49.6c1.4,3,2.8,6,4.3,8.9c1.5,2.9,3.1,5.8,4.7,8.7
							c1.6,2.9,3.3,5.7,5,8.5c1.7,2.8,3.5,5.6,5.3,8.3c6,9.1,12.5,17.8,19.5,26c6.9,8.3,14.3,16.1,22.1,23.4
							c7.8,7.3,16,14.2,24.6,20.6c8.6,6.4,17.5,12.2,26.8,17.5c9.3,5.3,19,10.1,28.9,14.4c10,4.2,20.3,7.9,30.8,11.1
							c10.5,3.1,21.4,5.7,32.4,7.7c11,2,22.3,3.5,33.8,4.4c11.4,0.9,22.9,1.1,34.6,0.7c11.5-0.4,23.2-1.4,34.8-3.1
							c11.6-1.6,23.2-3.9,34.8-6.7C986.6,1216.8,998.1,1213.4,1009.6,1209.4"/>
					</g>
				</g>
				<g id="XMLID_39_" class="st1">
					<defs>
						<path id="XMLID_42_" class="st1" d="M721.7,1203.6c-0.2-0.1-0.4-0.3-0.5-0.4s-0.4-0.3-0.5-0.4c-0.2-0.1-0.4-0.3-0.5-0.4
							c-0.2-0.1-0.4-0.3-0.5-0.4c-4.6-12.6-9.2-25.2-13.9-38c0.2,0.2,0.4,0.3,0.6,0.5s0.4,0.3,0.6,0.5c0.2,0.2,0.4,0.3,0.6,0.5
							c0.2,0.2,0.4,0.3,0.6,0.5C712.6,1178.5,717.2,1191.1,721.7,1203.6z"/>
					</defs>
					<clipPath id="XMLID_86_">
						<use xlink:href="#XMLID_42_"  style="overflow:visible;"/>
					</clipPath>
					<g id="XMLID_40_" class="st12">
						<path id="XMLID_41_" d="M1009.6,1209.4l-24.7,30.5c-10.1,3.6-20.3,6.7-30.4,9.3c-10.2,2.6-20.4,4.6-30.5,6.1
							c-10.2,1.5-20.4,2.5-30.5,2.9c-10.1,0.4-20.2,0.3-30.2-0.5c-10-0.7-19.8-1.9-29.4-3.6c-9.6-1.7-19.1-3.9-28.2-6.6
							c-9.2-2.7-18.1-5.9-26.8-9.5c-8.7-3.7-17.1-7.8-25.2-12.4c-8.1-4.6-15.9-9.7-23.3-15.2c-7.5-5.5-14.6-11.5-21.4-17.9
							c-6.8-6.4-13.2-13.2-19.3-20.5c-6-7.2-11.7-14.8-17-22.8c-1.6-2.4-3.1-4.8-4.7-7.3c-1.5-2.5-3-5-4.4-7.5
							c-1.4-2.5-2.8-5.1-4.1-7.7c-1.3-2.6-2.6-5.2-3.8-7.8l-23.1-49.6c1.4,3,2.8,6,4.3,8.9c1.5,2.9,3.1,5.8,4.7,8.7
							c1.6,2.9,3.3,5.7,5,8.5c1.7,2.8,3.5,5.6,5.3,8.3c6,9.1,12.5,17.8,19.5,26c6.9,8.3,14.3,16.1,22.1,23.4
							c7.8,7.3,16,14.2,24.6,20.6c8.6,6.4,17.5,12.2,26.8,17.5c9.3,5.3,19,10.1,28.9,14.4c10,4.2,20.3,7.9,30.8,11.1
							c10.5,3.1,21.4,5.7,32.4,7.7c11,2,22.3,3.5,33.8,4.4c11.4,0.9,22.9,1.1,34.6,0.7c11.5-0.4,23.2-1.4,34.8-3.1
							c11.6-1.6,23.2-3.9,34.8-6.7C986.6,1216.8,998.1,1213.4,1009.6,1209.4"/>
					</g>
				</g>
				<g id="XMLID_35_" class="st1">
					<defs>
						<path id="XMLID_38_" class="st1" d="M721.7,1203.6c-4.5-12.5-9-25.1-13.6-37.7c0.8,0.7,1.7,1.3,2.5,2c0.8,0.7,1.7,1.3,2.5,2
							c0.8,0.7,1.7,1.3,2.5,1.9c0.8,0.6,1.7,1.3,2.6,1.9c4.1,12.3,8.2,24.5,12.3,36.7c-0.7-0.6-1.5-1.1-2.2-1.7
							c-0.7-0.6-1.5-1.1-2.2-1.7s-1.5-1.1-2.2-1.7C723.1,1204.8,722.4,1204.2,721.7,1203.6z"/>
					</defs>
					<clipPath id="XMLID_87_">
						<use xlink:href="#XMLID_38_"  style="overflow:visible;"/>
					</clipPath>
					<g id="XMLID_36_" class="st13">
						<path id="XMLID_37_" d="M1009.6,1209.4l-24.7,30.5c-10.1,3.6-20.3,6.7-30.4,9.3c-10.2,2.6-20.4,4.6-30.5,6.1
							c-10.2,1.5-20.4,2.5-30.5,2.9c-10.1,0.4-20.2,0.3-30.2-0.5c-10-0.7-19.8-1.9-29.4-3.6c-9.6-1.7-19.1-3.9-28.2-6.6
							c-9.2-2.7-18.1-5.9-26.8-9.5c-8.7-3.7-17.1-7.8-25.2-12.4c-8.1-4.6-15.9-9.7-23.3-15.2c-7.5-5.5-14.6-11.5-21.4-17.9
							c-6.8-6.4-13.2-13.2-19.3-20.5c-6-7.2-11.7-14.8-17-22.8c-1.6-2.4-3.1-4.8-4.7-7.3c-1.5-2.5-3-5-4.4-7.5
							c-1.4-2.5-2.8-5.1-4.1-7.7c-1.3-2.6-2.6-5.2-3.8-7.8l-23.1-49.6c1.4,3,2.8,6,4.3,8.9c1.5,2.9,3.1,5.8,4.7,8.7
							c1.6,2.9,3.3,5.7,5,8.5c1.7,2.8,3.5,5.6,5.3,8.3c6,9.1,12.5,17.8,19.5,26c6.9,8.3,14.3,16.1,22.1,23.4
							c7.8,7.3,16,14.2,24.6,20.6c8.6,6.4,17.5,12.2,26.8,17.5c9.3,5.3,19,10.1,28.9,14.4c10,4.2,20.3,7.9,30.8,11.1
							c10.5,3.1,21.4,5.7,32.4,7.7c11,2,22.3,3.5,33.8,4.4c11.4,0.9,22.9,1.1,34.6,0.7c11.5-0.4,23.2-1.4,34.8-3.1
							c11.6-1.6,23.2-3.9,34.8-6.7C986.6,1216.8,998.1,1213.4,1009.6,1209.4"/>
					</g>
				</g>
				<g id="XMLID_31_" class="st1">
					<defs>
						<path id="XMLID_34_" class="st1" d="M732.7,1212.1c-4-12.1-7.9-24.2-11.9-36.4c1.9,1.4,3.9,2.8,5.9,4.1c2,1.3,4,2.7,6,4
							s4,2.6,6.1,3.8c2.1,1.2,4.1,2.5,6.2,3.7c1,0.6,2,1.1,3,1.7c1,0.6,2,1.1,3,1.7s2,1.1,3.1,1.6c1,0.5,2.1,1.1,3.1,1.6
							c2.4,11.2,4.8,22.4,7.2,33.5c-0.9-0.5-1.8-0.9-2.7-1.4c-0.9-0.5-1.8-0.9-2.7-1.4c-0.9-0.5-1.8-1-2.6-1.4
							c-0.9-0.5-1.8-1-2.6-1.5c-1.8-1-3.6-2.1-5.4-3.2c-1.8-1.1-3.5-2.2-5.3-3.3c-1.8-1.1-3.5-2.3-5.2-3.5
							C736.1,1214.5,734.4,1213.3,732.7,1212.1z"/>
					</defs>
					<clipPath id="XMLID_88_">
						<use xlink:href="#XMLID_34_"  style="overflow:visible;"/>
					</clipPath>
					<g id="XMLID_32_" class="st14">
						<path id="XMLID_33_" d="M1009.6,1209.4l-24.7,30.5c-10.1,3.6-20.3,6.7-30.4,9.3c-10.2,2.6-20.4,4.6-30.5,6.1
							c-10.2,1.5-20.4,2.5-30.5,2.9c-10.1,0.4-20.2,0.3-30.2-0.5c-10-0.7-19.8-1.9-29.4-3.6c-9.6-1.7-19.1-3.9-28.2-6.6
							c-9.2-2.7-18.1-5.9-26.8-9.5c-8.7-3.7-17.1-7.8-25.2-12.4c-8.1-4.6-15.9-9.7-23.3-15.2c-7.5-5.5-14.6-11.5-21.4-17.9
							c-6.8-6.4-13.2-13.2-19.3-20.5c-6-7.2-11.7-14.8-17-22.8c-1.6-2.4-3.1-4.8-4.7-7.3c-1.5-2.5-3-5-4.4-7.5
							c-1.4-2.5-2.8-5.1-4.1-7.7c-1.3-2.6-2.6-5.2-3.8-7.8l-23.1-49.6c1.4,3,2.8,6,4.3,8.9c1.5,2.9,3.1,5.8,4.7,8.7
							c1.6,2.9,3.3,5.7,5,8.5c1.7,2.8,3.5,5.6,5.3,8.3c6,9.1,12.5,17.8,19.5,26c6.9,8.3,14.3,16.1,22.1,23.4
							c7.8,7.3,16,14.2,24.6,20.6c8.6,6.4,17.5,12.2,26.8,17.5c9.3,5.3,19,10.1,28.9,14.4c10,4.2,20.3,7.9,30.8,11.1
							c10.5,3.1,21.4,5.7,32.4,7.7c11,2,22.3,3.5,33.8,4.4c11.4,0.9,22.9,1.1,34.6,0.7c11.5-0.4,23.2-1.4,34.8-3.1
							c11.6-1.6,23.2-3.9,34.8-6.7C986.6,1216.8,998.1,1213.4,1009.6,1209.4"/>
					</g>
				</g>
				<g id="XMLID_27_" class="st1">
					<defs>
						<path id="XMLID_30_" class="st1" d="M764.3,1231.3c-2.4-11.1-4.8-22.3-7.2-33.5c8.6,4.3,17.4,8.2,26.5,11.7
							c9.1,3.5,18.4,6.5,27.9,9.1c9.5,2.6,19.2,4.7,29.2,6.4c9.9,1.7,20,2.9,30.2,3.7c11.4,0.9,22.9,1.1,34.6,0.7
							c11.5-0.4,23.2-1.4,34.8-3.1c11.6-1.6,23.2-3.9,34.8-6.7c11.5-2.8,23-6.2,34.5-10.2l-24.7,30.5c-10.1,3.6-20.3,6.7-30.4,9.3
							c-10.2,2.6-20.4,4.6-30.5,6.1c-10.2,1.5-20.4,2.5-30.5,2.9c-10.1,0.4-20.2,0.3-30.2-0.5c-8.9-0.6-17.7-1.7-26.3-3.1
							c-8.6-1.4-17.1-3.2-25.4-5.5c-8.3-2.2-16.4-4.8-24.3-7.8C779.4,1238.4,771.8,1235.1,764.3,1231.3z"/>
					</defs>
					<clipPath id="XMLID_89_">
						<use xlink:href="#XMLID_30_"  style="overflow:visible;"/>
					</clipPath>
					<g id="XMLID_28_" class="st15">
						<path id="XMLID_29_" d="M1009.6,1209.4l-24.7,30.5c-10.1,3.6-20.3,6.7-30.4,9.3c-10.2,2.6-20.4,4.6-30.5,6.1
							c-10.2,1.5-20.4,2.5-30.5,2.9c-10.1,0.4-20.2,0.3-30.2-0.5c-10-0.7-19.8-1.9-29.4-3.6c-9.6-1.7-19.1-3.9-28.2-6.6
							c-9.2-2.7-18.1-5.9-26.8-9.5c-8.7-3.7-17.1-7.8-25.2-12.4c-8.1-4.6-15.9-9.7-23.3-15.2c-7.5-5.5-14.6-11.5-21.4-17.9
							c-6.8-6.4-13.2-13.2-19.3-20.5c-6-7.2-11.7-14.8-17-22.8c-1.6-2.4-3.1-4.8-4.7-7.3c-1.5-2.5-3-5-4.4-7.5
							c-1.4-2.5-2.8-5.1-4.1-7.7c-1.3-2.6-2.6-5.2-3.8-7.8l-23.1-49.6c1.4,3,2.8,6,4.3,8.9c1.5,2.9,3.1,5.8,4.7,8.7
							c1.6,2.9,3.3,5.7,5,8.5c1.7,2.8,3.5,5.6,5.3,8.3c6,9.1,12.5,17.8,19.5,26c6.9,8.3,14.3,16.1,22.1,23.4
							c7.8,7.3,16,14.2,24.6,20.6c8.6,6.4,17.5,12.2,26.8,17.5c9.3,5.3,19,10.1,28.9,14.4c10,4.2,20.3,7.9,30.8,11.1
							c10.5,3.1,21.4,5.7,32.4,7.7c11,2,22.3,3.5,33.8,4.4c11.4,0.9,22.9,1.1,34.6,0.7c11.5-0.4,23.2-1.4,34.8-3.1
							c11.6-1.6,23.2-3.9,34.8-6.7C986.6,1216.8,998.1,1213.4,1009.6,1209.4"/>
					</g>
				</g>
				<g id="XMLID_25_">
					
						<linearGradient id="XMLID_90_" gradientUnits="userSpaceOnUse" x1="1016.5807" y1="1139.7273" x2="695.2296" y2="301.1537" gradientTransform="matrix(0.9907 -0.1362 0.1362 0.9907 -63.3313 215.593)">
						<stop  offset="0" style="stop-color:#1C75BC"/>
						<stop  offset="1" style="stop-color:#27AAE1"/>
					</linearGradient>
					<path id="XMLID_85_" class="st16" d="M1287.5,958.4l-35.6,166.7l-242.3,84.3c-11.5,4-23,7.4-34.5,10.2
						c-11.6,2.8-23.2,5.1-34.8,6.7c-11.7,1.6-23.3,2.7-34.8,3.1c-11.6,0.4-23.1,0.1-34.6-0.7c-11.5-0.9-22.7-2.4-33.8-4.4
						c-11.1-2-21.9-4.6-32.5-7.7c-10.6-3.1-20.9-6.8-30.8-11.1c-10-4.2-19.6-9-29-14.4c-9.3-5.3-18.3-11.2-26.8-17.5
						c-8.6-6.4-16.8-13.2-24.6-20.5c-7.8-7.3-15.1-15.1-22.1-23.4c-6.9-8.2-13.4-16.9-19.5-26c-6-9.1-11.5-18.5-16.3-28.3
						c-4.8-9.7-9.1-19.8-12.8-30.2c-3.7-10.3-6.7-21-9.2-31.8c-2.5-10.8-4.4-21.9-5.7-33.2c-1.3-11.2-2-22.2-2.1-33.1
						c-0.1-10.8,0.4-21.4,1.5-31.8c1.1-10.3,2.8-20.4,5-30.3c2.2-9.8,5-19.4,8.3-28.8c3.3-9.3,7-18.3,11.2-27
						c4.1-8.7,8.6-17,13.6-25.1c4.9-8,10.2-15.8,15.8-23.2c5.6-7.4,11.6-14.5,17.9-21.3c6.3-6.7,12.9-13.2,19.9-19.3
						c6.9-6.1,14.2-11.8,21.8-17.3c7.5-5.4,15.3-10.5,23.5-15.3c8.1-4.8,16.4-9.2,25-13.4c8.4-4,17-7.7,25.8-11.1
						c8.7-3.4,17.7-6.4,26.8-9.1c9.1-2.7,18.3-5.1,27.7-7.1c9.3-2.1,18.9-3.8,28.5-5.2l2.5-0.4l288.1-40.8l-39.5,122.5L909.4,784
						c-5.1,1-10.1,2.1-14.9,3.4c-4.8,1.3-9.5,2.8-14,4.4c-4.6,1.6-9,3.5-13.2,5.4c-4.3,2-8.4,4.1-12.5,6.5
						c-4.1,2.4-8.1,4.9-11.9,7.5c-3.8,2.7-7.4,5.5-10.9,8.4c-3.5,3-6.8,6.1-9.9,9.3c-3.1,3.2-6.1,6.6-8.9,10.1
						c-2.8,3.5-5.4,7.2-7.8,11c-2.4,3.8-4.6,7.7-6.7,11.8c-2,4.1-3.9,8.3-5.5,12.6c-1.6,4.3-3.1,8.8-4.3,13.4
						c-1.2,4.6-2.2,9.3-2.9,14c-0.7,4.8-1.1,9.6-1.3,14.5c-0.2,4.9-0.1,10,0.3,15c0.4,5.1,1,10.2,2,15.4c0.9,5.2,2.1,10.3,3.5,15.2
						c1.4,4.9,3.1,9.7,4.9,14.4c1.9,4.6,4,9.1,6.3,13.4c2.4,4.3,4.9,8.4,7.7,12.3c2.8,3.9,5.8,7.7,9,11.2c3.2,3.5,6.6,6.9,10.1,10
						c3.6,3.1,7.3,6,11.2,8.7c3.9,2.7,8,5.1,12.2,7.4c4.2,2.2,8.6,4.2,13.1,6c4.5,1.8,9.1,3.3,13.9,4.7c4.7,1.3,9.6,2.4,14.5,3.3
						c4.9,0.9,10,1.5,15.1,1.9c5.1,0.4,10.3,0.6,15.5,0.5c5.2-0.1,10.5-0.4,15.8-1c5.3-0.6,10.6-1.4,15.9-2.4
						c5.3-1.1,10.6-2.3,16-3.9L1287.5,958.4z"/>
				</g>
				<g id="XMLID_21_" class="st1">
					<defs>
						<path id="XMLID_24_" class="st1" d="M655,1120l-23.2-49.4c1.4,2.9,2.8,5.8,4.3,8.7c1.5,2.9,3,5.7,4.6,8.5
							c1.6,2.8,3.2,5.6,4.9,8.4c1.7,2.8,3.4,5.5,5.2,8.2c6.1,9.1,12.6,17.9,19.6,26.2c7,8.3,14.4,16.2,22.2,23.5
							c7.8,7.4,16.1,14.3,24.7,20.7c8.6,6.4,17.6,12.3,27,17.6c9.4,5.4,19.1,10.2,29.1,14.4c10,4.3,20.4,8,31,11.1
							c10.6,3.1,21.5,5.7,32.6,7.8c11.1,2,22.4,3.5,33.9,4.4c11.5,0.9,23,1.1,34.7,0.7c11.6-0.4,23.2-1.4,34.9-3.1
							c11.6-1.6,23.3-3.9,34.9-6.8c11.6-2.8,23.1-6.3,34.6-10.3l-24.7,30.4c-10.1,3.6-20.3,6.7-30.5,9.3
							c-10.2,2.6-20.5,4.7-30.7,6.2c-10.2,1.5-20.5,2.5-30.6,2.9c-10.2,0.4-20.3,0.3-30.3-0.5c-10.1-0.7-19.9-1.9-29.6-3.6
							c-9.7-1.7-19.1-3.9-28.4-6.6c-9.2-2.7-18.2-5.9-26.9-9.6c-8.7-3.7-17.2-7.9-25.3-12.5c-8.1-4.6-16-9.8-23.5-15.3
							c-7.5-5.6-14.7-11.6-21.5-18c-6.8-6.4-13.3-13.3-19.4-20.6c-6.1-7.3-11.8-14.9-17.1-22.9c-1.6-2.4-3.1-4.8-4.6-7.2
							c-1.5-2.4-2.9-4.9-4.3-7.4c-1.4-2.5-2.7-5-4-7.5C657.5,1125.1,656.2,1122.5,655,1120z"/>
					</defs>
					<clipPath id="XMLID_91_">
						<use xlink:href="#XMLID_24_"  style="overflow:visible;"/>
					</clipPath>
					<g id="XMLID_22_" class="st17">
						
							<linearGradient id="XMLID_92_" gradientUnits="userSpaceOnUse" x1="1037.6857" y1="1121.0857" x2="382.1042" y2="994.2683" gradientTransform="matrix(0.9907 -0.1362 0.1362 0.9907 -63.3313 215.593)">
							<stop  offset="3.763441e-002" style="stop-color:#939598"/>
							<stop  offset="0.2097" style="stop-color:#FFFFFF"/>
							<stop  offset="0.3172" style="stop-color:#B8BABC"/>
							<stop  offset="0.4731" style="stop-color:#F1F2F2"/>
							<stop  offset="0.6935" style="stop-color:#6E7072"/>
							<stop  offset="0.8118" style="stop-color:#F1F2F2"/>
							<stop  offset="0.9624" style="stop-color:#939598"/>
						</linearGradient>
						<path id="XMLID_23_" class="st18" d="M1010,1210.6l-24.7,30.4c-10.1,3.6-20.3,6.7-30.5,9.3c-10.2,2.6-20.5,4.7-30.7,6.2
							c-10.2,1.5-20.5,2.5-30.6,2.9c-10.2,0.4-20.3,0.3-30.3-0.5c-10.1-0.7-19.9-1.9-29.6-3.6c-9.7-1.7-19.1-3.9-28.4-6.6
							c-9.2-2.7-18.2-5.9-26.9-9.6c-8.7-3.7-17.2-7.9-25.3-12.5c-8.1-4.6-16-9.8-23.5-15.3c-7.5-5.6-14.7-11.6-21.5-18
							c-6.8-6.4-13.3-13.3-19.4-20.6c-6.1-7.3-11.8-14.9-17.1-22.9c-1.6-2.4-3.1-4.8-4.6-7.2c-1.5-2.4-2.9-4.9-4.3-7.4
							c-1.4-2.5-2.7-5-4-7.5c-1.3-2.5-2.6-5.1-3.8-7.7l-23.2-49.4c1.4,2.9,2.8,5.8,4.3,8.7c1.5,2.9,3,5.7,4.6,8.5
							c1.6,2.8,3.2,5.6,4.9,8.4c1.7,2.8,3.4,5.5,5.2,8.2c6.1,9.1,12.6,17.9,19.6,26.2c7,8.3,14.4,16.2,22.2,23.5
							c7.8,7.4,16.1,14.3,24.7,20.7c8.6,6.4,17.6,12.3,27,17.6c9.4,5.4,19.1,10.2,29.1,14.4c10,4.3,20.4,8,31,11.1
							c10.6,3.1,21.5,5.7,32.6,7.8c11.1,2,22.4,3.5,33.9,4.4c11.5,0.9,23,1.1,34.7,0.7c11.6-0.4,23.2-1.4,34.9-3.1
							c11.6-1.6,23.3-3.9,34.9-6.8C987,1218,998.5,1214.6,1010,1210.6"/>
					</g>
				</g>
				<g id="XMLID_8_">
					
						<linearGradient id="XMLID_93_" gradientUnits="userSpaceOnUse" x1="1045.4406" y1="1219.2716" x2="690.7659" y2="284.2203" gradientTransform="matrix(0.9907 -0.1362 0.1362 0.9907 -63.3313 215.593)">
						<stop  offset="3.763441e-002" style="stop-color:#939598"/>
						<stop  offset="0.2097" style="stop-color:#FFFFFF"/>
						<stop  offset="0.3172" style="stop-color:#B8BABC"/>
						<stop  offset="0.4731" style="stop-color:#F1F2F2"/>
						<stop  offset="0.6935" style="stop-color:#6E7072"/>
						<stop  offset="0.8118" style="stop-color:#F1F2F2"/>
						<stop  offset="0.9624" style="stop-color:#939598"/>
					</linearGradient>
					<path id="XMLID_9_" class="st19" d="M908.6,1054.1c5.1,0.4,10.2,0.6,15.4,0.5c5.2-0.1,10.4-0.4,15.7-1
						c5.2-0.6,10.5-1.4,15.8-2.4c5.3-1,10.6-2.3,15.9-3.8l317.4-90.4l-36.1,169.1l-242.7,84.6c-11.5,4-23,7.4-34.6,10.3
						c-11.6,2.9-23.3,5.1-34.9,6.8c-11.7,1.7-23.4,2.7-34.9,3.1c-11.7,0.4-23.2,0.2-34.7-0.7c-11.5-0.9-22.9-2.3-33.9-4.4
						c-11.1-2-22-4.6-32.6-7.8c-10.6-3.2-21-6.9-31-11.1c-10-4.3-19.7-9.1-29.1-14.4c-9.4-5.4-18.4-11.2-27-17.6
						c-8.6-6.4-16.9-13.3-24.7-20.7c-7.8-7.4-15.2-15.2-22.2-23.5c-7-8.3-13.5-17-19.6-26.2c-6-9.1-11.5-18.6-16.4-28.4
						c-4.9-9.8-9.1-19.9-12.8-30.3c-3.7-10.4-6.8-21-9.3-32c-2.5-10.9-4.4-22-5.7-33.3c-1.3-11.2-2-22.3-2.1-33.2
						c-0.1-10.8,0.4-21.5,1.6-31.9c1.1-10.4,2.8-20.5,5-30.4c2.2-9.8,5-19.5,8.4-28.9c3.3-9.3,7.1-18.4,11.2-27.1
						c4.1-8.7,8.7-17.1,13.6-25.2c4.9-8,10.2-15.8,15.9-23.3c5.6-7.4,11.6-14.5,18-21.3c6.3-6.7,13-13.2,20-19.3
						c6.9-6.1,14.2-11.9,21.8-17.3c7.5-5.4,15.4-10.6,23.5-15.4c8.1-4.8,16.5-9.3,25.1-13.4c8.4-4,17-7.8,25.9-11.2
						c8.8-3.4,17.7-6.4,26.9-9.1c9.1-2.7,18.4-5.1,27.8-7.1c9.4-2.1,18.9-3.8,28.6-5.2c0.2,0,0.4-0.1,0.6-0.1c0.2,0,0.4-0.1,0.6-0.1
						c0.2,0,0.4-0.1,0.6-0.1c0.2,0,0.4-0.1,0.6-0.1l289.7-40.9l-39.9,124.3l-220.3,41.1c-5.1,1-10.1,2.1-14.9,3.4
						c-4.8,1.3-9.5,2.8-14,4.4c-4.5,1.6-8.9,3.4-13.2,5.4c-4.3,2-8.4,4.1-12.4,6.4c-4.1,2.4-8,4.9-11.8,7.5
						c-3.8,2.7-7.4,5.4-10.9,8.4c-3.5,2.9-6.8,6-9.9,9.2c-3.1,3.2-6.1,6.6-8.8,10.1c-2.8,3.5-5.3,7.1-7.7,10.9
						c-2.4,3.8-4.6,7.7-6.6,11.7c-2,4-3.8,8.2-5.5,12.5c-1.6,4.3-3,8.7-4.3,13.3c-1.2,4.6-2.2,9.2-2.9,13.9
						c-0.7,4.7-1.1,9.6-1.3,14.4c-0.2,4.9-0.1,9.9,0.3,14.9c0.4,5.1,1,10.2,2,15.3c0.9,5.2,2.1,10.2,3.5,15.1
						c1.4,4.9,3,9.6,4.9,14.2c1.9,4.6,4,9,6.3,13.3c2.3,4.3,4.9,8.3,7.7,12.2c2.8,3.9,5.7,7.6,8.9,11.1c3.2,3.5,6.5,6.8,10,9.9
						c3.5,3.1,7.2,5.9,11.1,8.6c3.9,2.7,7.9,5.1,12.1,7.3c4.2,2.2,8.5,4.2,13,6c4.5,1.8,9,3.3,13.7,4.6c4.7,1.3,9.5,2.4,14.4,3.3
						C898.6,1053.1,903.6,1053.7,908.6,1054.1z M1251.8,1125.1l35.6-166.7l-315.6,90.1c-5.3,1.5-10.7,2.8-16,3.9
						c-5.3,1.1-10.6,1.9-15.9,2.4c-5.3,0.6-10.5,0.9-15.8,1c-5.2,0.1-10.4-0.1-15.5-0.5c-5.1-0.4-10.2-1-15.1-1.9
						c-4.9-0.9-9.8-2-14.5-3.3c-4.7-1.3-9.4-2.9-13.9-4.7c-4.5-1.8-8.9-3.8-13.1-6c-4.2-2.2-8.3-4.7-12.2-7.4
						c-3.9-2.7-7.6-5.6-11.2-8.7c-3.6-3.1-6.9-6.4-10.1-10c-3.2-3.5-6.2-7.3-9-11.2c-2.8-3.9-5.4-8-7.7-12.3
						c-2.3-4.3-4.5-8.7-6.4-13.4c-1.9-4.6-3.5-9.4-4.9-14.4c-1.4-4.9-2.6-10-3.5-15.2c-0.9-5.2-1.6-10.3-2-15.4
						c-0.4-5.1-0.5-10.1-0.3-15c0.2-4.9,0.6-9.8,1.3-14.6c0.7-4.8,1.7-9.4,2.9-14c1.2-4.6,2.7-9,4.3-13.4c1.6-4.3,3.5-8.5,5.5-12.6
						c2-4.1,4.2-8,6.7-11.8c2.4-3.8,5-7.4,7.8-11c2.8-3.5,5.7-6.9,8.9-10.1c3.1-3.2,6.4-6.3,9.9-9.3c3.5-2.9,7.1-5.8,10.9-8.4
						c3.8-2.7,7.8-5.2,11.9-7.5c4-2.3,8.2-4.5,12.4-6.5c4.3-2,8.6-3.8,13.1-5.4c4.5-1.6,9-3.1,13.7-4.4c4.7-1.3,9.4-2.4,14.3-3.3
						l221-41.1l39.5-122.5l-288.1,40.8c-0.2,0-0.4,0.1-0.6,0.1c-0.2,0-0.4,0.1-0.6,0.1c-0.2,0-0.4,0.1-0.6,0.1
						c-0.2,0-0.4,0.1-0.6,0.1c-9.7,1.4-19.2,3.2-28.5,5.2c-9.4,2.1-18.7,4.4-27.7,7.1c-9.1,2.7-18.1,5.8-26.8,9.1
						c-8.8,3.4-17.4,7.1-25.8,11.1c-8.6,4.2-17,8.6-25.1,13.4c-8.1,4.8-16,9.9-23.5,15.3c-7.6,5.5-14.8,11.2-21.8,17.3
						c-7,6.1-13.6,12.6-19.9,19.3c-6.3,6.8-12.3,13.9-17.9,21.3c-5.7,7.4-10.9,15.2-15.8,23.2c-4.9,8.1-9.5,16.5-13.6,25.1
						c-4.2,8.7-7.9,17.8-11.2,27c-3.3,9.4-6.1,19-8.3,28.8c-2.2,9.9-3.9,20-5,30.3c-1.1,10.4-1.6,21-1.5,31.8
						c0.1,10.9,0.8,21.9,2.1,33.1c1.3,11.3,3.2,22.3,5.7,33.2c2.5,10.9,5.6,21.5,9.2,31.8c3.7,10.4,7.9,20.5,12.8,30.2
						c4.9,9.8,10.3,19.2,16.3,28.3c6,9.1,12.5,17.8,19.5,26c6.9,8.3,14.3,16.1,22.1,23.4c7.8,7.3,16,14.2,24.6,20.6
						c8.6,6.4,17.5,12.2,26.8,17.5c9.3,5.3,19,10.1,29,14.4c10,4.2,20.3,7.9,30.8,11.1c10.6,3.1,21.4,5.7,32.4,7.7
						c11,2,22.3,3.5,33.8,4.4c11.4,0.9,22.9,1.1,34.6,0.7c11.5-0.4,23.2-1.4,34.8-3.1c11.6-1.6,23.2-3.9,34.8-6.7
						c11.5-2.8,23-6.2,34.5-10.2L1251.8,1125.1"/>
				</g>
			</g>
		</g>
		
			<linearGradient id="XMLID_94_" gradientUnits="userSpaceOnUse" x1="1398.0767" y1="861.4661" x2="781.5291" y2="831.506" gradientTransform="matrix(0.9907 -0.1362 0.1362 0.9907 -63.3313 215.593)">
			<stop  offset="0" style="stop-color:#FFFFFF"/>
			<stop  offset="1" style="stop-color:#FFFFFF;stop-opacity:0"/>
		</linearGradient>
		<path id="XMLID_83_" class="st20" d="M804.7,1216.6c-10.6-3.1-20.9-6.8-30.8-11.1c-10-4.2-19.6-9-29-14.4
			c-9.3-5.3-18.3-11.2-26.8-17.5c-8.6-6.4-16.8-13.2-24.6-20.5c-7.8-7.3-15.1-15.1-22.1-23.4c-6.9-8.2-13.4-16.9-19.5-26
			c-6-9.1-11.5-18.5-16.3-28.3c-4.8-9.7-9.1-19.8-12.8-30.2c-3.7-10.3-6.7-21-9.2-31.8c-2.5-10.8-4.4-21.9-5.7-33.2
			c-1.3-11.2-2-22.2-2.1-33.1c-0.1-10.8,0.4-21.4,1.5-31.8c1.1-10.3,2.8-20.4,5-30.3c2.2-9.8,5-19.4,8.3-28.8
			c3.3-9.3,7-18.3,11.2-27c4.1-8.7,8.6-17,13.6-25.1c4.9-8,10.2-15.8,15.8-23.2c5.6-7.4,11.6-14.5,17.9-21.3
			c6.3-6.7,12.9-13.2,19.9-19.3c6.9-6.1,14.2-11.8,21.8-17.3c7.5-5.4,15.3-10.5,23.5-15.3c8.1-4.8,16.4-9.2,25-13.4
			c8.4-4,17-7.7,25.8-11.1c8.7-3.4,17.7-6.4,26.8-9.1c9.1-2.7,18.3-5.1,27.7-7.1c9.3-2.1,18.9-3.8,28.5-5.2l2.5-0.4l288.1-40.8
			C1168.8,620.5,555.5,740.2,804.7,1216.6z"/>
	</g>
	<g id="XMLID_11_">
		<path id="XMLID_12_" class="st21" d="M1626.4,1145h-250.7c-26.9,0-46.1-3.3-57.7-10c-11.5-6.7-17.3-19.1-17.3-37.5
			c0-8,1-17.3,3.1-28l30.8-158.4c5.6-30.2,14.8-50.3,27.6-60.4c12.8-10.1,35-15.1,66.6-15.1h257.3l-12,62.6h-243.6
			c-4.1,0-7,0.5-8.7,1.6c-1.6,1-2.7,3.3-3.3,6.9l-32,164.6c-0.2,1.5-0.3,2.5-0.3,3.1c0,3.6,3,5.3,8.9,5.3h243.6L1626.4,1145z"/>
		<path id="XMLID_14_" class="st21" d="M2048.5,1145h-83.2l24.9-128.2h-199.5l-24.9,128.2h-83.2l60.1-309.2h83.2l-22.9,117.6h199.5
			l22.9-117.6h83.2L2048.5,1145z"/>
		<path id="XMLID_16_" class="st21" d="M2200.3,1145h-83.2l60.1-309.2h83.2L2200.3,1145z"/>
		<path id="XMLID_18_" class="st21" d="M2603,1145h-250.7c-26.9,0-46.1-3.3-57.7-10c-11.5-6.7-17.3-19.1-17.3-37.5
			c0-8,1-17.3,3.1-28l30.8-158.4c5.6-30.2,14.8-50.3,27.6-60.4c12.8-10.1,35-15.1,66.6-15.1h257.3l-12,62.6h-243.6
			c-4.1,0-7,0.5-8.7,1.6c-1.6,1-2.7,3.3-3.3,6.9l-32,164.6c-0.2,1.5-0.3,2.5-0.3,3.1c0,3.6,3,5.3,8.9,5.3h243.6L2603,1145z"/>
	</g>
</g>
</svg>
